<svg id="SvgjsSvg1001" width="288" height="288" xmlns="http://www.w3.org/2000/svg" version="1.1" xmlnsXlink="http://www.w3.org/1999/xlink" xmlnsSvgjs="http://svgjs.com/svgjs"><defs id="SvgjsDefs1002"></defs><g id="SvgjsG1008" transform="matrix(1,0,0,1,0,0)"><svg xmlns="http://www.w3.org/2000/svg" width="288" height="288" viewBox="0 0 294 114"><defs><clipPath id="a"><rect width="294" height="114" fill="#fc5185" class="color000 svgShape"></rect></clipPath></defs><g clip-path="url(#a)" data-name="Web 1920 – 22" fill="#fc5185" class="color000 svgShape"><path fill="#ffffff" d="M6.493,0A2.091,2.091,0,0,1,4.924-.645,2.148,2.148,0,0,1,4.3-2.193v-21.2a11.535,11.535,0,0,1,1.268-5.568,8.491,8.491,0,0,1,4-3.634,16.638,16.638,0,0,1,7.073-1.29,12.18,12.18,0,0,1,3.59.473,5.982,5.982,0,0,1,2.387,1.29,2.582,2.582,0,0,1,.86,1.935q0,1.892-2.322,1.892a3.312,3.312,0,0,1-1.613-.387,11.546,11.546,0,0,1-1.4-.9,9.548,9.548,0,0,0-1.462-.9,3.99,3.99,0,0,0-1.806-.387,7.4,7.4,0,0,0-3.01.624,4.858,4.858,0,0,0-2.3,2.257,9.825,9.825,0,0,0-.882,4.6v21.2A2.148,2.148,0,0,1,8.063-.645,2.091,2.091,0,0,1,6.493,0ZM2.451-18.963a2.07,2.07,0,0,1-1.462-.516,1.683,1.683,0,0,1-.559-1.29,1.783,1.783,0,0,1,.559-1.376,2.07,2.07,0,0,1,1.462-.516H13.115a2.07,2.07,0,0,1,1.462.516,1.783,1.783,0,0,1,.559,1.376,1.683,1.683,0,0,1-.559,1.29,2.07,2.07,0,0,1-1.462.516ZM20.812,0a2.128,2.128,0,0,1-1.569-.623,2.128,2.128,0,0,1-.624-1.569V-21.328a2.11,2.11,0,0,1,.624-1.591,2.169,2.169,0,0,1,1.569-.6,2.151,2.151,0,0,1,1.591.6,2.151,2.151,0,0,1,.6,1.591V-2.193a2.169,2.169,0,0,1-.6,1.569A2.11,2.11,0,0,1,20.812,0Zm29.8.043a2.128,2.128,0,0,1-1.569-.624,2.128,2.128,0,0,1-.624-1.57V-12.728a7.866,7.866,0,0,0-.9-4,5.687,5.687,0,0,0-2.429-2.3,7.827,7.827,0,0,0-3.5-.753,7.205,7.205,0,0,0-3.268.731,6.11,6.11,0,0,0-2.322,1.956,4.781,4.781,0,0,0-.86,2.817H32.422a9.033,9.033,0,0,1,1.312-4.838,9.467,9.467,0,0,1,3.59-3.375,10.483,10.483,0,0,1,5.117-1.247,10.975,10.975,0,0,1,5.311,1.269,9.151,9.151,0,0,1,3.7,3.719,12.3,12.3,0,0,1,1.354,6.02V-2.15a2.128,2.128,0,0,1-.624,1.57A2.128,2.128,0,0,1,50.611.043Zm-17.673,0a2.128,2.128,0,0,1-1.569-.624,2.128,2.128,0,0,1-.623-1.57V-21.328a2.11,2.11,0,0,1,.623-1.591,2.169,2.169,0,0,1,1.569-.6,2.151,2.151,0,0,1,1.591.6,2.151,2.151,0,0,1,.6,1.591V-2.15a2.169,2.169,0,0,1-.6,1.57A2.11,2.11,0,0,1,32.938.043Zm38.7.129A11.642,11.642,0,0,1,65.618-1.4,11.5,11.5,0,0,1,61.4-5.676a12.412,12.412,0,0,1-1.591-6.106V-31.39a2.11,2.11,0,0,1,.624-1.591,2.169,2.169,0,0,1,1.569-.6,2.151,2.151,0,0,1,1.591.6,2.151,2.151,0,0,1,.6,1.591v11.61a11.064,11.064,0,0,1,3.633-2.859A10.371,10.371,0,0,1,72.5-23.693a10.354,10.354,0,0,1,5.633,1.569,11.154,11.154,0,0,1,3.935,4.257,12.675,12.675,0,0,1,1.44,6.084,11.956,11.956,0,0,1-1.569,6.106A11.661,11.661,0,0,1,77.7-1.4,11.724,11.724,0,0,1,71.638.172Zm0-3.87a7.34,7.34,0,0,0,3.913-1.053,7.609,7.609,0,0,0,2.73-2.9,8.465,8.465,0,0,0,1.01-4.128,8.309,8.309,0,0,0-1.01-4.128,7.7,7.7,0,0,0-2.73-2.86,7.34,7.34,0,0,0-3.913-1.053,7.372,7.372,0,0,0-3.892,1.053,7.48,7.48,0,0,0-2.73,2.86,8.453,8.453,0,0,0-.989,4.128,8.612,8.612,0,0,0,.989,4.128,7.4,7.4,0,0,0,2.73,2.9A7.372,7.372,0,0,0,71.638-3.7ZM99.588.172A10.354,10.354,0,0,1,93.955-1.4a11.154,11.154,0,0,1-3.935-4.257,12.675,12.675,0,0,1-1.44-6.085,11.956,11.956,0,0,1,1.569-6.106,11.61,11.61,0,0,1,4.257-4.279,11.757,11.757,0,0,1,6.041-1.569,11.642,11.642,0,0,1,6.02,1.569,11.661,11.661,0,0,1,4.235,4.279,11.956,11.956,0,0,1,1.57,6.106H110.6a12.675,12.675,0,0,1-1.44,6.085A11.154,11.154,0,0,1,105.221-1.4,10.354,10.354,0,0,1,99.588.172Zm.86-3.87a7.34,7.34,0,0,0,3.913-1.053,7.49,7.49,0,0,0,2.709-2.881,8.487,8.487,0,0,0,.989-4.107,8.578,8.578,0,0,0-.989-4.149,7.49,7.49,0,0,0-2.709-2.881,7.34,7.34,0,0,0-3.913-1.053,7.372,7.372,0,0,0-3.891,1.053A7.6,7.6,0,0,0,93.8-15.889a8.431,8.431,0,0,0-1.011,4.149A8.342,8.342,0,0,0,93.8-7.632a7.6,7.6,0,0,0,2.752,2.881A7.372,7.372,0,0,0,100.448-3.7ZM110.08.043a2.128,2.128,0,0,1-1.57-.624,2.128,2.128,0,0,1-.623-1.57V-8.729l.817-4.558,3.569,1.548V-2.15a2.128,2.128,0,0,1-.623,1.57A2.128,2.128,0,0,1,110.08.043Zm28.337,0a2.128,2.128,0,0,1-1.569-.624,2.128,2.128,0,0,1-.624-1.57V-12.728a7.866,7.866,0,0,0-.9-4,5.687,5.687,0,0,0-2.43-2.3,7.827,7.827,0,0,0-3.5-.753,7.205,7.205,0,0,0-3.268.731,6.11,6.11,0,0,0-2.322,1.956,4.781,4.781,0,0,0-.86,2.817h-2.709a9.033,9.033,0,0,1,1.312-4.838,9.467,9.467,0,0,1,3.59-3.375,10.483,10.483,0,0,1,5.117-1.247,10.975,10.975,0,0,1,5.311,1.269,9.151,9.151,0,0,1,3.7,3.719,12.3,12.3,0,0,1,1.355,6.02V-2.15a2.128,2.128,0,0,1-.624,1.57A2.128,2.128,0,0,1,138.417.043Zm-17.673,0a2.128,2.128,0,0,1-1.57-.624,2.128,2.128,0,0,1-.623-1.57V-21.328a2.11,2.11,0,0,1,.623-1.591,2.169,2.169,0,0,1,1.57-.6,2.151,2.151,0,0,1,1.591.6,2.151,2.151,0,0,1,.6,1.591V-2.15a2.169,2.169,0,0,1-.6,1.57A2.11,2.11,0,0,1,120.744.043Z" data-name="Pfad 24" transform="translate(130.57 68.356)" class="color720db7 svgShape"></path><rect width="18" height="81" fill="#ffffff" data-name="Rechteck 274" rx="9" transform="rotate(180 46.25 42.75)" class="color720db7 svgShape"></rect><rect width="18" height="81" fill="#ffffff" data-name="Rechteck 275" rx="9" transform="rotate(180 34.25 54.75)" class="color720db7 svgShape"></rect><rect width="18" height="28" fill="#ffffff" data-name="Rechteck 276" rx="9" transform="rotate(180 22.25 25.75)" class="color720db7 svgShape"></rect><rect width="18" height="81" fill="#ffffff" data-name="Rechteck 280" rx="9" transform="rotate(180 46.25 42.75)" class="color720db7 svgShape"></rect><rect width="18" height="81" fill="#ffffff" data-name="Rechteck 281" rx="9" transform="rotate(180 34.25 54.75)" class="color720db7 svgShape"></rect><rect width="18" height="28" fill="#ffffff" data-name="Rechteck 282" rx="9" transform="rotate(180 22.25 25.75)" class="color720db7 svgShape"></rect></g></svg></g></svg>